<?xml version="1.0" encoding="UTF-8"?>
<svg version="1.1" xmlns="http://www.w3.org/2000/svg" width="456" height="418">
<path d="M0 0 C150.48 0 300.96 0 456 0 C456 137.94 456 275.88 456 418 C305.52 418 155.04 418 0 418 C0 280.06 0 142.12 0 0 Z " fill="#FCFCFD" transform="translate(0,0)"/>
<path d="M0 0 C2.31 0.66 4.62 1.32 7 2 C6.34 8.93 5.68 15.86 5 23 C-0.88872437 22.26390945 -4.95558095 21.49964181 -10.375 19.625 C-35.15804917 11.67197272 -64.64514516 10.9547043 -90 17 C-90.74556152 17.17160645 -91.49112305 17.34321289 -92.25927734 17.52001953 C-120.05237756 24.07991811 -143.44788566 38.42110556 -164 58 C-164.78117187 58.71671875 -165.56234375 59.4334375 -166.3671875 60.171875 C-186.57181051 79.29795942 -199.23326252 106.55969833 -205.25 133.375 C-205.41306641 134.09937256 -205.57613281 134.82374512 -205.74414062 135.57006836 C-212.77685646 168.37319875 -207.59044513 207.85004275 -189.5625 236.4375 C-188.88316406 237.46746094 -188.20382813 238.49742187 -187.50390625 239.55859375 C-186 242 -186 242 -186 244 C-188.58010196 245.48505869 -191.16377559 246.96317311 -193.75 248.4375 C-194.47960937 248.85837891 -195.20921875 249.27925781 -195.9609375 249.71289062 C-196.66992188 250.11572266 -197.37890625 250.51855469 -198.109375 250.93359375 C-199.08342285 251.4913147 -199.08342285 251.4913147 -200.07714844 252.06030273 C-202.03827134 253.0187032 -203.86964435 253.5503043 -206 254 C-207.41122026 251.17755947 -208.82067686 248.35439395 -210.22265625 245.52734375 C-211.36786506 243.25454473 -212.54046613 240.99524082 -213.74609375 238.75390625 C-220.31006187 226.34230506 -224.17580706 213.2079178 -227.3125 199.5625 C-227.47194092 198.87833008 -227.63138184 198.19416016 -227.7956543 197.48925781 C-230.25237265 186.12303962 -230.24028091 174.45390088 -230.25 162.875 C-230.25067474 162.14633728 -230.25134949 161.41767456 -230.25204468 160.66693115 C-230.23567037 149.50455182 -229.63013967 138.87521334 -227 128 C-226.83371094 127.25218262 -226.66742188 126.50436523 -226.49609375 125.73388672 C-223.69996154 113.20566101 -219.37209427 101.6404111 -214 90 C-213.69803711 89.3409668 -213.39607422 88.68193359 -213.08496094 88.00292969 C-209.12831448 79.46629918 -204.50677834 71.62326254 -199 64 C-198.23429687 62.93523437 -197.46859375 61.87046875 -196.6796875 60.7734375 C-174.0923067 30.3116788 -140.87268981 6.6076727 -104 -3 C-103.35740234 -3.16983398 -102.71480469 -3.33966797 -102.05273438 -3.51464844 C-70.13844753 -11.84732107 -30.89181754 -13.52178985 0 0 Z " fill="#4B5AF6" transform="translate(266,39)"/>
<path d="M0 0 C10.47475685 5.5639296 20.77625053 12.4739932 28 22 C25.15584569 20.95326663 22.61433204 19.77976067 19.9765625 18.2734375 C11.16443487 13.28195262 4.30437139 11.35816199 -6 13 C-10.71299185 14.35590407 -12.40865515 17.02214728 -14.89453125 21.1328125 C-20.90365704 32.19286847 -22.37065382 41.76666891 -22.3125 54.3125 C-22.30831055 55.5485498 -22.30412109 56.78459961 -22.29980469 58.05810547 C-22.1808427 67.81931604 -21.31743216 77.19899181 -19.43554688 86.77197266 C-19.02168064 88.8890933 -18.65635253 91.00981002 -18.296875 93.13671875 C-10.38822802 136.49104165 12.86607196 180.3243361 43 212 C43.61488281 212.66773438 44.22976563 213.33546875 44.86328125 214.0234375 C54.29832803 223.97639854 67.99791954 233.88430434 82.0625 234.4375 C89.02577877 234.35210862 93.88769697 232.81662879 99 228 C102.59051365 222.84287072 104.54832477 217.07064188 106 211 C106.33 211 106.66 211 107 211 C107.16009731 216.52951487 106.74957674 221.49487229 105.375 226.875 C105.10985596 227.91491089 105.10985596 227.91491089 104.83935547 228.97583008 C102.46662418 237.65396854 98.56631628 244.90431761 91 250 C84.70194126 253.51237891 78.8047293 253.95406968 71.81640625 252.56640625 C38.12383525 242.61318803 15.12855698 206.80599233 -0.87890625 177.875 C-9.56075062 161.76954957 -17.61693752 145.15176652 -24 128 C-24.39960938 127.04351562 -24.79921875 126.08703125 -25.2109375 125.1015625 C-36.18773953 98.4635907 -43.13078745 68.41483169 -43.25 39.625 C-43.270625 38.3875 -43.29125 37.15 -43.3125 35.875 C-43.3635973 23.73939151 -41.77418821 11.03932278 -33.00390625 1.92578125 C-23.21352653 -6.9304705 -11.50839148 -5.1978104 0 0 Z " fill="#23A4F5" transform="translate(320,28)"/>
<path d="M0 0 C1.51464844 2.50927734 1.51464844 2.50927734 3.109375 5.8359375 C3.54422211 6.72691635 3.54422211 6.72691635 3.987854 7.63589478 C4.9181955 9.54443869 5.83513716 11.45899379 6.75 13.375 C7.94492264 15.86603344 9.14784745 18.35293745 10.359375 20.8359375 C10.65469116 21.44532166 10.95000732 22.05470581 11.25427246 22.68255615 C13.70141364 27.63210081 16.60759016 32.13800499 19.82128906 36.61962891 C21 39 21 39 20.86865234 41.60180664 C19.93570584 44.17750464 19.05824317 45.39758758 17.0859375 47.26953125 C16.49321045 47.84421143 15.9004834 48.4188916 15.28979492 49.01098633 C14.6579126 49.60548584 14.02603027 50.19998535 13.375 50.8125 C12.08541949 52.06062219 10.79763792 53.31060592 9.51171875 54.5625 C8.89731934 55.15804687 8.28291992 55.75359375 7.64990234 56.3671875 C5.15741892 58.83385355 2.90027941 61.47045077 0.63671875 64.14453125 C-2.03051593 67.16824598 -4.93933865 69.94692797 -7.80859375 72.77734375 C-10.42101068 75.4270144 -12.83302621 78.21172803 -15.25390625 81.03515625 C-17.72603418 83.81699148 -20.38430547 86.39375951 -23.03515625 89.00390625 C-24.92230744 90.92107177 -26.68685375 92.89575322 -28.4375 94.9375 C-32.3892995 99.53135388 -36.68132135 103.75397202 -41 108 C-42.02201828 109.01964701 -43.04311158 110.04022379 -44.0625 111.0625 C-44.701875 111.701875 -45.34125 112.34125 -46 113 C-44.75175994 106.25986136 -43.17659998 99.7016659 -41.25 93.125 C-40.98832031 92.22007812 -40.72664062 91.31515625 -40.45703125 90.3828125 C-38.438792 83.43002657 -36.35914288 76.49590395 -34.26416016 69.56591797 C-31.40230492 60.07482127 -28.69846082 50.53861071 -26 41 C-49.02101523 49.82973376 -71.74079684 59.34960308 -94.45782471 68.92840576 C-97.82484696 70.34769485 -101.19276736 71.76484596 -104.56065369 73.18208313 C-112.71102681 76.6121448 -120.85741843 80.0514769 -129 83.5 C-131.22522666 84.44148603 -133.45048733 85.38289169 -135.67578125 86.32421875 C-138.70783134 87.60685123 -141.73977727 88.88972059 -144.77099609 90.17431641 C-154.00260619 94.08637033 -163.25421921 97.92640979 -172.5703125 101.6328125 C-180.58802296 104.82893854 -188.43868824 108.07204186 -196.0390625 112.1796875 C-197.00972656 112.58574219 -197.00972656 112.58574219 -198 113 C-198.66 112.67 -199.32 112.34 -200 112 C-181.86252655 101.26403034 -163.62099685 90.70642455 -145.25 80.375 C-136.97265858 75.71824396 -128.77782762 70.93869209 -120.61572266 66.08325195 C-112.57250365 61.31039185 -104.45732862 56.66728813 -96.32965088 52.04046631 C-88.08637429 47.34713001 -79.87193695 42.60795838 -71.6875 37.8125 C-60.19374574 31.08484145 -48.61499791 24.51568466 -37 18 C-35.91348145 17.39027344 -34.82696289 16.78054687 -33.70751953 16.15234375 C-19.57246286 8.22287208 -19.57246286 8.22287208 -14.70410156 5.51953125 C-12.91857589 4.5161806 -11.14403371 3.49299721 -9.38183594 2.44921875 C-8.58293945 1.98128906 -7.78404297 1.51335937 -6.9609375 1.03125 C-6.26532715 0.61423828 -5.5697168 0.19722656 -4.85302734 -0.23242188 C-3 -1 -3 -1 0 0 Z " fill="#101722" transform="translate(303,181)"/>
<path d="M0 0 C3.14290089 1.40695563 5.4100843 3.11027565 7.9375 5.4375 C10.80671864 8.01175224 13.57665878 10.18134998 17 12 C16.36925447 16.56414474 14.56371009 20.37292895 12.5 24.4375 C11.96596558 25.49203369 11.96596558 25.49203369 11.42114258 26.56787109 C-8.55361949 65.26380371 -42.18462861 93.83225484 -83.328125 107.91015625 C-89.70034834 109.80148637 -96.1707492 111.25466574 -102.69042969 112.54174805 C-104.28345126 112.85782643 -105.87259459 113.19388102 -107.45800781 113.54614258 C-115.42025535 115.20285141 -123.26552617 115.35509642 -131.375 115.3125 C-132.42698074 115.31026428 -132.42698074 115.31026428 -133.50021362 115.3079834 C-156.80794857 115.21923618 -186.02254626 112.3183025 -206 99 C-206.29296875 95.9609375 -206.29296875 95.9609375 -206.1875 92.375 C-206.14689453 90.59222656 -206.14689453 90.59222656 -206.10546875 88.7734375 C-206.07066406 87.85820312 -206.03585938 86.94296875 -206 86 C-191.6370258 85.17664479 -179.04086416 86.90808113 -165.12109375 90.4921875 C-154.97613959 93.06602825 -145.28011974 94.34622183 -134.8125 94.25 C-133.72388672 94.24250732 -132.63527344 94.23501465 -131.51367188 94.22729492 C-101.00307948 93.82406131 -71.02955622 84.21025803 -47 65 C-46.46020508 64.57235352 -45.92041016 64.14470703 -45.36425781 63.70410156 C-23.88125503 46.53466279 -10.72298066 25.02028822 0 0 Z " fill="#1842A1" transform="translate(355,270)"/>
<path d="M0 0 C25.82954272 -0.33632217 51.62092336 0.25373958 77.4375 1 C78.26507813 1.02391563 79.09265625 1.04783127 79.9453125 1.07247162 C90.29715567 1.37247425 100.64869591 1.68192514 111 2 C109.15235372 6.02751409 106.47259937 8.71329682 103.3125 11.75 C99.23244053 15.74278547 95.34325033 19.79093893 91.640625 24.140625 C89.21397553 26.89082773 86.58513769 29.42388177 83.97265625 31.99609375 C81.42662171 34.58246151 79.07978443 37.3153528 76.71484375 40.06640625 C75.03995701 41.95494597 73.30052413 43.73155648 71.5 45.5 C69.10722509 47.85033101 66.86808888 50.264224 64.6875 52.8125 C61.92381971 56.02333755 59.01380404 59.02267165 56 62 C52.42438264 65.53247266 49.06863507 69.1543061 45.8046875 72.97265625 C42.38056712 76.81923304 38.6774967 80.39755425 35 84 C31.93065808 81.17341924 29.9866839 78.49686809 28.08984375 74.7890625 C27.57486328 73.79132813 27.05988281 72.79359375 26.52929688 71.765625 C26.00400391 70.72921875 25.47871094 69.6928125 24.9375 68.625 C24.40833984 67.59632813 23.87917969 66.56765625 23.33398438 65.5078125 C22.31963324 63.53256412 21.31196349 61.55386588 20.31201172 59.57128906 C19.27214661 57.53335469 18.17846333 55.52289367 17.06640625 53.5234375 C16 51 16 51 16.12597656 49.03564453 C17.38607828 46.10080428 19.13394754 45.41368255 21.91796875 43.90625 C22.92537109 43.35066406 23.93277344 42.79507813 24.97070312 42.22265625 C26.03224609 41.65417969 27.09378906 41.08570313 28.1875 40.5 C30.26541863 39.36658984 32.34227301 38.23122599 34.41796875 37.09375 C35.34375732 36.59552734 36.2695459 36.09730469 37.22338867 35.58398438 C40.25816597 33.85272305 43.11353428 31.9670178 46 30 C45.07662842 30.33322266 44.15325684 30.66644531 43.2019043 31.00976562 C39.77637001 32.24454238 36.34862058 33.47306448 32.92016602 34.69970703 C31.43648059 35.23152998 29.95340175 35.76504836 28.47094727 36.30029297 C26.34027708 37.06924592 24.2075015 37.83207986 22.07421875 38.59375 C21.41161545 38.83436157 20.74901215 39.07497314 20.06632996 39.32287598 C17.22936915 40.32990715 15.03673783 41 12 41 C8.31129285 31.86979578 5.21231248 22.6930951 2.625 13.1875 C2.36251465 12.2269873 2.1000293 11.26647461 1.82958984 10.27685547 C0 3.40638361 0 3.40638361 0 0 Z " fill="#151D2B" transform="translate(309,118)"/>
<path d="M0 0 C20.02698688 -0.10483645 39.99867411 -0.17285262 60 1 C60.20044922 1.7027002 60.40089844 2.40540039 60.60742188 3.12939453 C64.49100578 16.67130192 68.4808519 30.0773815 73.6484375 43.19384766 C73.97199219 44.03608887 74.29554688 44.87833008 74.62890625 45.74609375 C74.91838135 46.47497803 75.20785645 47.2038623 75.50610352 47.95483398 C76.10143482 50.4200294 75.89319118 51.63682067 75 54 C72.23328132 55.41476867 69.62429287 56.53880293 66.7265625 57.6171875 C65.86838425 57.95089859 65.01020599 58.28460968 64.12602234 58.62843323 C61.29761771 59.72485852 58.46145576 60.79959532 55.625 61.875 C53.66234084 62.63247849 51.70034983 63.39169033 49.73901367 64.15258789 C45.74710151 65.70008384 41.75270981 67.24089007 37.75634766 68.77685547 C30.30564273 71.64665682 22.88791566 74.59717799 15.47753906 77.56930542 C13.32560353 78.4322454 11.17263221 79.29256051 9.01953125 80.15258789 C-0.63688607 84.01623513 -10.25013888 87.97516238 -19.8112793 92.07006836 C-20.695979 92.44526611 -21.58067871 92.82046387 -22.4921875 93.20703125 C-23.24870605 93.5316333 -24.00522461 93.85623535 -24.78466797 94.19067383 C-27.16951672 95.06192946 -29.50206897 95.56315074 -32 96 C-29.19836716 93.02935914 -26.36351783 90.7758554 -22.9375 88.5625 C-17.56127653 85.03924675 -12.23788835 81.4488883 -6.9375 77.8125 C-6.13006348 77.25908936 -5.32262695 76.70567871 -4.49072266 76.13549805 C-2.82732874 74.99532902 -1.16408142 73.85494608 0.49902344 72.71435547 C4.55943795 69.93104517 8.62379819 67.1535074 12.6875 64.375 C17.93489656 60.78671467 23.17714785 57.19120553 28.41137695 53.58374023 C35.56380953 48.65486183 42.75355586 43.78978978 50 39 C46.53378226 35.3611109 43.02105735 32.44475915 38.875 29.5625 C37.63444337 28.69148876 36.39491805 27.81900741 35.15625 26.9453125 C34.49109375 26.47641602 33.8259375 26.00751953 33.140625 25.52441406 C26.76515664 20.98421967 20.49608711 16.29413644 14.20751953 11.63476562 C12.18078682 10.13388062 10.1511734 8.63697728 8.12109375 7.140625 C7.01798495 6.32324615 5.91510074 5.50556407 4.8125 4.6875 C3.39904297 3.64142578 3.39904297 3.64142578 1.95703125 2.57421875 C1.31121094 2.05472656 0.66539062 1.53523438 0 1 C0 0.67 0 0.34 0 0 Z " fill="#111823" transform="translate(221,116)"/>
<path d="M0 0 C4.55767074 12.8272589 8.14811345 25.68929675 11 39 C11.24878906 40.11375 11.49757813 41.2275 11.75390625 42.375 C14.74062233 58.08136705 15.38372751 76.44628445 8 91 C5.44983621 94.71273845 3.10258527 97.09196257 -1 99 C-10.52416949 100.6491515 -18.09470224 98.28104254 -26 93 C-29.55178907 90.20083967 -32.79850057 87.1907018 -36 84 C-36.73347656 83.26910156 -37.46695312 82.53820312 -38.22265625 81.78515625 C-39.57367072 80.42909126 -40.91913574 79.06746467 -42.2578125 77.69921875 C-44.07431234 75.85230649 -44.07431234 75.85230649 -46.6875 74 C-50.9769887 70.29017194 -54.21641619 65.71388481 -54.6875 59.9375 C-53.82822957 55.01622392 -51.82924069 52.17450006 -48 49 C-47.34 49 -46.68 49 -46 49 C-45.28192741 54.68046712 -45.06004706 59.96610803 -45.4375 65.6875 C-45.46122796 70.18240127 -45.46122796 70.18240127 -43.64453125 74.171875 C-41.5475963 76.1261319 -39.46975903 77.54318361 -37 79 C-35.57107422 79.86625 -35.57107422 79.86625 -34.11328125 80.75 C-28.21380992 84.0132159 -22.79587564 86.57761399 -16 85 C-10.34018238 82.17009119 -8.05125172 78.90548906 -5.94140625 73.07421875 C-4.49347408 67.83996444 -4.6598124 62.51797538 -4.6875 57.125 C-4.69168945 56.01600342 -4.69587891 54.90700684 -4.70019531 53.7644043 C-4.88070144 40.51160593 -7.25213439 28.45264262 -11.328125 15.85546875 C-12.02257022 12.90407657 -12.26150832 11.71752233 -11 9 C-9.00390625 6.640625 -9.00390625 6.640625 -6.5625 4.25 C-5.75941406 3.45078125 -4.95632813 2.6515625 -4.12890625 1.828125 C-2 0 -2 0 0 0 Z " fill="#5F07E8" transform="translate(408,149)"/>
<path d="M0 0 C9.15183767 3.36148125 16.70624048 8.60039664 24 15 C25.02673828 15.82951172 25.02673828 15.82951172 26.07421875 16.67578125 C34.18057514 23.34879368 40.26272739 31.853411 46.375 40.3125 C46.79185059 40.88685791 47.20870117 41.46121582 47.63818359 42.05297852 C50.13014198 45.55929501 52.17427832 49.10709022 54 53 C39.89590255 55.08337196 39.89590255 55.08337196 35.1796875 51.69042969 C31.95560584 48.36705565 29.49509177 44.57250626 27.08740234 40.63476562 C25.65509932 38.48148744 23.84145441 36.80352972 22 35 C22 34.34 22 33.68 22 33 C21.4121875 32.73703125 20.824375 32.4740625 20.21875 32.203125 C17.90429111 30.94810152 16.38064739 29.58115667 14.5 27.75 C8.09790148 22.08432097 0.81813956 17.73828643 -7.875 17.3125 C-11.57618724 17.55747067 -13.10785081 18.06078864 -16.4375 19.9375 C-20.58539808 24.89474405 -23.16719827 30.54578663 -24 37 C-24.33 37 -24.66 37 -25 37 C-25.93269844 13.44936448 -25.93269844 13.44936448 -19.0234375 5.81640625 C-12.86309756 0.24969907 -8.33408165 -1.19485042 0 0 Z " fill="#5E07E7" transform="translate(336,58)"/>
<path d="M0 0 C1.18261719 2.54443359 1.18261719 2.54443359 2.296875 5.8984375 C2.69777344 7.09984375 3.09867188 8.30125 3.51171875 9.5390625 C3.71458496 10.16844727 3.91745117 10.79783203 4.12646484 11.44628906 C4.74696823 13.36562217 5.38946005 15.27651506 6.03515625 17.1875 C9.13114471 26.60656587 9.13114471 26.60656587 8 30 C5.27197266 31.16674805 5.27197266 31.16674805 1.6640625 32.26171875 C1.02890717 32.45723831 0.39375183 32.65275787 -0.26065063 32.85420227 C-1.60561586 33.2657261 -2.95239759 33.6713522 -4.30078125 34.0715332 C-6.36345901 34.68407275 -8.42018132 35.31394555 -10.4765625 35.94726562 C-20.51360058 39 -20.51360058 39 -24 39 C-24.16604736 38.43603516 -24.33209473 37.87207031 -24.50317383 37.29101562 C-25.26993864 34.69311112 -26.04119077 32.09655875 -26.8125 29.5 C-27.07353516 28.613125 -27.33457031 27.72625 -27.60351562 26.8125 C-28.8406009 22.65833711 -30.12588021 18.57142797 -31.69921875 14.53125 C-33 11 -33 11 -33 8 C-25.30823389 5.3378852 -17.59972115 2.78495785 -9.75 0.625 C-7.91695312 0.11839844 -7.91695312 0.11839844 -6.046875 -0.3984375 C-3 -1 -3 -1 0 0 Z " fill="#5729F3" transform="translate(82,305)"/>
<path d="M0 0 C1.46630721 2.00224701 2.70712721 3.92187272 3.9375 6.0625 C4.28941406 6.65651611 4.64132813 7.25053223 5.00390625 7.86254883 C6.01199013 9.5695242 7.00634051 11.28458785 8 13 C8.46535156 13.77601563 8.93070313 14.55203125 9.41015625 15.3515625 C12 19.71438172 12 19.71438172 12 22 C9.78442383 23.57226562 9.78442383 23.57226562 6.70703125 25.40625 C5.60166016 26.06753906 4.49628906 26.72882813 3.35742188 27.41015625 C2.48428345 27.92473389 2.48428345 27.92473389 1.59350586 28.44970703 C-0.16736011 29.48812313 -1.92101302 30.53790764 -3.67382812 31.58984375 C-16.13242416 39 -16.13242416 39 -22 39 C-24.44058327 33.17452058 -25.65878193 28.04171016 -26.0625 21.75 C-26.14693359 20.96109375 -26.23136719 20.1721875 -26.31835938 19.359375 C-26.47003778 17.08611895 -26.5157382 15.22057942 -26 13 C-23.0307953 10.37720251 -20.67963117 9.22192038 -16.9375 8 C-13.60540378 6.86566937 -11.70049398 5.22790753 -9 3 C-3.64285714 0 -3.64285714 0 0 0 Z " fill="#436BFB" transform="translate(126,313)"/>
<path d="M0 0 C2.01878927 3.0281839 2.36044596 4.44588331 2.875 7.9375 C3.64081558 12.18036535 4.54911715 14.23929372 8 17 C8 17.66 8 18.32 8 19 C8.680625 19.2475 9.36125 19.495 10.0625 19.75 C13.56865083 21.24197908 16.71620368 23.06835511 20 25 C20 25.66 20 26.32 20 27 C22.97 27.99 25.94 28.98 29 30 C29.33 29.34 29.66 28.68 30 28 C30.54269531 29.10859375 31.08539063 30.2171875 31.64453125 31.359375 C32.36697274 32.82302269 33.08964092 34.2865585 33.8125 35.75 C34.16892578 36.47960937 34.52535156 37.20921875 34.89257812 37.9609375 C36.68888852 41.58651812 38.52560287 44.78406429 41 48 C41 48.66 41 49.32 41 50 C38.41989804 51.48505869 35.83622441 52.96317311 33.25 54.4375 C32.52039063 54.85837891 31.79078125 55.27925781 31.0390625 55.71289062 C30.33007812 56.11572266 29.62109375 56.51855469 28.890625 56.93359375 C28.24125977 57.30540771 27.59189453 57.67722168 26.92285156 58.06030273 C24.96172866 59.0187032 23.13035565 59.5503043 21 60 C19.58877974 57.17755947 18.17932314 54.35439395 16.77734375 51.52734375 C15.63213494 49.25454473 14.45953387 46.99524082 13.25390625 44.75390625 C6.41641231 31.82510369 -0.76468034 14.91126666 0 0 Z " fill="#5355FA" transform="translate(39,233)"/>
<path d="M0 0 C2.69787075 2.69787075 4.28615925 4.93409471 6.1875 8.1875 C6.71730469 9.08855469 7.24710938 9.98960937 7.79296875 10.91796875 C8.19128906 11.60503906 8.58960938 12.29210937 9 13 C14.23985076 12.26775225 17.93340549 9.81345544 22.37890625 7.08203125 C25 6 25 6 27.1953125 6.609375 C30.25427731 8.9664994 31.34799487 11.51243361 33 15 C31.86319212 18.41042364 31.31647987 18.72502787 28.39453125 20.55859375 C27.65783203 21.02716797 26.92113281 21.49574219 26.16210938 21.97851562 C25.38673828 22.45998047 24.61136719 22.94144531 23.8125 23.4375 C22.2979906 24.39423612 20.78366444 25.35126236 19.26953125 26.30859375 C18.53943848 26.76218262 17.8093457 27.21577148 17.05712891 27.68310547 C15.2139335 28.86304803 13.46415258 30.11824023 11.69921875 31.41015625 C9 33 9 33 7.02905273 32.91113281 C4.10143093 31.59650346 3.3653021 29.80397872 1.8359375 27.01171875 C1.27132812 25.99529297 0.70671875 24.97886719 0.125 23.93164062 C-0.4525 22.86107422 -1.03 21.79050781 -1.625 20.6875 C-2.50285156 19.09905273 -2.50285156 19.09905273 -3.3984375 17.47851562 C-5.6723431 13.35054249 -7.89215495 9.21569009 -10 5 C-6.7 3.35 -3.4 1.7 0 0 Z " fill="#4539EB" transform="translate(151,286)"/>
<path d="M0 0 C1.640625 2.36328125 1.640625 2.36328125 3.25 5.3125 C3.79140625 6.27800781 4.3328125 7.24351562 4.890625 8.23828125 C6.11571567 11.28806682 6.25181829 12.04747005 5 15 C3.0222168 16.53979492 3.0222168 16.53979492 0.44921875 17.98046875 C-0.47697266 18.50447266 -1.40316406 19.02847656 -2.35742188 19.56835938 C-3.33259766 20.10267578 -4.30777344 20.63699219 -5.3125 21.1875 C-6.27607422 21.73341797 -7.23964844 22.27933594 -8.23242188 22.84179688 C-16.0362648 27.2061082 -16.0362648 27.2061082 -20 28 C-21.3410005 25.5664433 -22.67294856 23.12864699 -24 20.6875 C-24.3815625 19.99720703 -24.763125 19.30691406 -25.15625 18.59570312 C-28 13.33984375 -28 13.33984375 -28 10 C-27.38479492 9.73783691 -26.76958984 9.47567383 -26.13574219 9.20556641 C-23.33994867 8.01332024 -20.54496791 6.81918026 -17.75 5.625 C-16.78191406 5.2125 -15.81382813 4.8 -14.81640625 4.375 C-13.88183594 3.97539062 -12.94726562 3.57578125 -11.984375 3.1640625 C-10.69611816 2.61419678 -10.69611816 2.61419678 -9.38183594 2.05322266 C-7.00638818 1.04884427 -7.00638818 1.04884427 -4.87597656 -0.19775391 C-3 -1 -3 -1 0 0 Z " fill="#082378" transform="translate(111,236)"/>
<path d="M0 0 C2.02048131 1.30208796 4.01811655 2.63988391 6 4 C7.42459061 4.55517134 8.86305381 5.07590021 10.3125 5.5625 C11.529375 6.036875 12.74625 6.51125 14 7 C14.495 8.485 14.495 8.485 15 10 C18.3 10.33 21.6 10.66 25 11 C25 11.33 25 11.66 25 12 C18.4 12 11.8 12 5 12 C5 16.29 5 20.58 5 25 C-0.29047044 22.84231794 -5.22421403 20.32417962 -10.1875 17.5 C-10.88552734 17.10941406 -11.58355469 16.71882813 -12.30273438 16.31640625 C-19.41825451 12.29488488 -19.41825451 12.29488488 -22 10 C-22 9.34 -22 8.68 -22 8 C-19.27620319 6.65461856 -16.54686492 5.32358465 -13.8125 4 C-13.04357422 3.6184375 -12.27464844 3.236875 -11.48242188 2.84375 C-4.10608133 -0.70195876 -4.10608133 -0.70195876 0 0 Z " fill="#63B0F6" transform="translate(144,344)"/>
<path d="M0 0 C2.94919622 1.92310826 4.09543466 4.94335212 5.53515625 8.0390625 C5.85097656 8.67714844 6.16679688 9.31523437 6.4921875 9.97265625 C7.89317515 12.87773453 8.78515625 14.90149054 8.78515625 18.1640625 C6.16253305 19.50225748 3.53729026 20.8347776 0.91015625 22.1640625 C0.16378906 22.545625 -0.58257812 22.9271875 -1.3515625 23.3203125 C-2.06699219 23.68125 -2.78242187 24.0421875 -3.51953125 24.4140625 C-4.17937012 24.74921875 -4.83920898 25.084375 -5.51904297 25.4296875 C-7.21484375 26.1640625 -7.21484375 26.1640625 -9.21484375 26.1640625 C-10.58147762 23.73282981 -11.93323045 21.29520087 -13.27734375 18.8515625 C-13.86225586 17.81612305 -13.86225586 17.81612305 -14.45898438 16.75976562 C-15.45521858 14.93480562 -16.34237217 13.05132373 -17.21484375 11.1640625 C-15.83361313 7.02037065 -13.01981309 5.95002514 -9.40234375 3.9140625 C-8.77263672 3.53765625 -8.14292969 3.16125 -7.49414062 2.7734375 C-5.01454595 1.35801305 -2.87627449 0.21305737 0 0 Z " fill="#5D0DEE" transform="translate(35.21484375,280.8359375)"/>
<path d="M0 0 C3.20867865 3.20867865 4.2619228 5.6010599 5 10 C4.29617187 10.46148437 3.59234375 10.92296875 2.8671875 11.3984375 C-5.22810335 16.7459795 -13.13446093 22.32191854 -21 28 C-23.79872437 25.47211993 -25.45773019 23.79588866 -26 20 C-25.2059375 19.52691406 -24.411875 19.05382812 -23.59375 18.56640625 C-17.65807161 15.07772409 -17.65807161 15.07772409 -14.26953125 9.46484375 C-14.30871095 7.21735387 -14.49839972 5.18880123 -15 3 C-13.4447088 2.29634398 -11.88035173 1.61270622 -10.3125 0.9375 C-9.44238281 0.55464844 -8.57226562 0.17179687 -7.67578125 -0.22265625 C-4.62297149 -1.10953091 -2.99924531 -0.9895987 0 0 Z " fill="#5149F4" transform="translate(226,260)"/>
<path d="M0 0 C3 3.33333333 3 3.33333333 3 6 C2.47792969 6.27972656 1.95585938 6.55945313 1.41796875 6.84765625 C-4.04969 9.82566303 -9.3015231 13.05337218 -14.51953125 16.44921875 C-16.63908396 17.77435643 -18.7429659 18.93198619 -21 20 C-20.17854148 24.14506081 -18.19877641 27.2836419 -16.05859375 30.87890625 C-15 33 -15 33 -15 36 C-14.34 36.33 -13.68 36.66 -13 37 C-16.37097383 38.49821059 -18.20442119 39 -22 39 C-24.44058327 33.17452058 -25.65878193 28.04171016 -26.0625 21.75 C-26.14693359 20.96109375 -26.23136719 20.1721875 -26.31835938 19.359375 C-26.47003778 17.08611895 -26.5157382 15.22057942 -26 13 C-23.0307953 10.37720251 -20.67963117 9.22192038 -16.9375 8 C-13.60540378 6.86566937 -11.70049398 5.22790753 -9 3 C-3.64285714 0 -3.64285714 0 0 0 Z " fill="#81D2FD" transform="translate(126,313)"/>
<path d="M0 0 C0.84212256 1.91282125 1.67338864 3.83042473 2.5 5.75 C2.9640625 6.81734375 3.428125 7.8846875 3.90625 8.984375 C5 12 5 12 5 16 C3.11157486 16.87042243 1.21388098 17.72075474 -0.6875 18.5625 C-1.74324219 19.03816406 -2.79898438 19.51382813 -3.88671875 20.00390625 C-7.25870028 21.08277111 -8.76743173 21.45022755 -12 20 C-13.58203125 17.34765625 -13.58203125 17.34765625 -14.8125 14.0625 C-15.23144531 12.98097656 -15.65039062 11.89945313 -16.08203125 10.78515625 C-17 8 -17 8 -17 6 C-14.5433053 4.99580363 -12.08481647 3.99649499 -9.625 3 C-8.92632812 2.71382812 -8.22765625 2.42765625 -7.5078125 2.1328125 C-2.2265625 0 -2.2265625 0 0 0 Z " fill="#0A2472" transform="translate(147,224)"/>
<path d="M0 0 C2.96052484 3.36423277 3.92289822 6.69159287 5 11 C3.75539217 11.67667998 2.50403104 12.34094719 1.25 13 C0.55390625 13.37125 -0.1421875 13.7425 -0.859375 14.125 C-3 15 -3 15 -7 15 C-7 15.66 -7 16.32 -7 17 C-10.82745451 18.74685308 -14.12442723 19.34886333 -18.3125 19.625 C-19.38113281 19.69976562 -20.44976562 19.77453125 -21.55078125 19.8515625 C-22.76314453 19.92503906 -22.76314453 19.92503906 -24 20 C-24.66 18.35 -25.32 16.7 -26 15 C-25.35450195 14.65219482 -24.70900391 14.30438965 -24.04394531 13.94604492 C-21.1108158 12.36319914 -18.18039264 10.77540651 -15.25 9.1875 C-14.23421875 8.64029297 -13.2184375 8.09308594 -12.171875 7.52929688 C-10.70234375 6.73168945 -10.70234375 6.73168945 -9.203125 5.91796875 C-8.30239258 5.43094482 -7.40166016 4.9439209 -6.47363281 4.44213867 C-4.17106532 3.09973182 -2.09262537 1.64634098 0 0 Z " fill="#49BAF5" transform="translate(117,249)"/>
<path d="M0 0 C2.67910553 2.67910553 4.19952081 4.82730085 6.0625 8.0625 C7.59239834 10.71354522 8.83289375 12.83289375 11 15 C9.54462432 15.83848804 8.08559627 16.67063934 6.625 17.5 C5.81289062 17.9640625 5.00078125 18.428125 4.1640625 18.90625 C2 20 2 20 0 20 C-0.33 20.66 -0.66 21.32 -1 22 C-2.34409762 19.75583701 -3.67529896 17.50557204 -5 15.25 C-5.3815625 14.61578125 -5.763125 13.9815625 -6.15625 13.328125 C-8.17915652 9.86028524 -9 8.10651746 -9 4 C-6.03 2.68 -3.06 1.36 0 0 Z " fill="#4DB3FC" transform="translate(151,286)"/>
<path d="M0 0 C0.67354499 1.43429001 1.33859701 2.87257057 2 4.3125 C2.556875 5.51326172 2.556875 5.51326172 3.125 6.73828125 C4 9 4 9 4 12 C2.04350603 12.83764268 0.08474444 13.66999059 -1.875 14.5 C-2.96554688 14.9640625 -4.05609375 15.428125 -5.1796875 15.90625 C-8 17 -8 17 -10 17 C-10.67305018 15.39850114 -11.33822227 13.79368971 -12 12.1875 C-12.37125 11.29417969 -12.7425 10.40085937 -13.125 9.48046875 C-14 7 -14 7 -14 4 C-12.42032193 3.32471777 -10.83608097 2.66010306 -9.25 2 C-8.36828125 1.62875 -7.4865625 1.2575 -6.578125 0.875 C-4 0 -4 0 0 0 Z " fill="#2BB8FC" transform="translate(68,361)"/>
<path d="M0 0 C1.59138085 4.17737474 2.21278058 7.53160785 2 12 C0.58603098 12.50757862 -0.83131729 13.00574925 -2.25 13.5 C-3.03890625 13.7784375 -3.8278125 14.056875 -4.640625 14.34375 C-7 15 -7 15 -11 15 C-12.13764351 10.73383684 -13 7.43513689 -13 3 C-11.39743892 2.49487756 -9.79288208 1.99608373 -8.1875 1.5 C-7.29417969 1.2215625 -6.40085938 0.943125 -5.48046875 0.65625 C-3 0 -3 0 0 0 Z " fill="#0BCDFC" transform="translate(177,219)"/>
<path d="M0 0 C0 0.66 0 1.32 0 2 C0.99 2.33 1.98 2.66 3 3 C3.6875 5.0625 3.6875 5.0625 4 7 C2.42953257 8.06096463 0.84305483 9.09826235 -0.75 10.125 C-1.63171875 10.70507812 -2.5134375 11.28515625 -3.421875 11.8828125 C-6 13 -6 13 -8.1875 12.3671875 C-10.86775206 10.34544564 -12.32256007 7.87561131 -14 5 C-14 4.34 -14 3.68 -14 3 C-9.03006806 0.56574762 -5.65394631 -0.34615998 0 0 Z " fill="#C0C1FC" transform="translate(245,251)"/>
<path d="M0 0 C1.93103448 16.51724138 1.93103448 16.51724138 0 24 C-3.98624125 22.67125292 -4.90093882 20.78040933 -6.96875 17.25 C-8.7432756 13.37830777 -8.7424102 11.25198567 -8 7 C-3.62998102 0 -3.62998102 0 0 0 Z " fill="#3060DA" transform="translate(362,198)"/>
<path d="M0 0 C1.37562854 1.28965176 2.70766393 2.62689293 4 4 C4 4.66 4 5.32 4 6 C1.41989804 7.48505869 -1.16377559 8.96317311 -3.75 10.4375 C-4.47960937 10.85837891 -5.20921875 11.27925781 -5.9609375 11.71289062 C-6.66992188 12.11572266 -7.37890625 12.51855469 -8.109375 12.93359375 C-8.75874023 13.30540771 -9.40810547 13.67722168 -10.07714844 14.06030273 C-12.03827134 15.0187032 -13.86964435 15.5503043 -16 16 C-18 13 -18 13 -17.84375 10.93359375 C-16.77349511 8.4809263 -15.92994566 8.1087266 -13.5 7.0625 C-10.24647722 5.58309019 -7.11735418 4.00104547 -4 2.25 C-3.236875 1.82203125 -2.47375 1.3940625 -1.6875 0.953125 C-1.130625 0.63859375 -0.57375 0.3240625 0 0 Z " fill="#6896FC" transform="translate(76,277)"/>
<path d="M0 0 C3 3.33333333 3 3.33333333 3 6 C2.40832031 6.32613281 1.81664063 6.65226562 1.20703125 6.98828125 C-2.21135864 8.8787122 -5.61244117 10.76086796 -8.9375 12.8125 C-11 14 -11 14 -13 14 C-14.625 11.5 -14.625 11.5 -16 9 C-6.15533981 0 -6.15533981 0 0 0 Z " fill="#A6EAFD" transform="translate(126,313)"/>
<path d="M0 0 C2 3 2 3 2 7 C0.11157486 7.87042243 -1.78611902 8.72075474 -3.6875 9.5625 C-4.74324219 10.03816406 -5.79898438 10.51382813 -6.88671875 11.00390625 C-10.22298846 12.07134512 -11.78551739 12.39050299 -15 11 C-16.3125 8.4375 -16.3125 8.4375 -17 6 C-16.10796875 5.79503906 -15.2159375 5.59007812 -14.296875 5.37890625 C-13.12640625 5.10949219 -11.9559375 4.84007812 -10.75 4.5625 C-9.58984375 4.29566406 -8.4296875 4.02882812 -7.234375 3.75390625 C-4.81650239 3.19032 -2.40556696 2.61330049 0 2 C0 1.34 0 0.68 0 0 Z " fill="#097EE3" transform="translate(150,233)"/>
<path d="M0 0 C3.03865158 1.39613721 3.87344915 3.10865878 5.3125 6.0625 C3.90498779 6.93166887 2.4860479 7.78235149 1.0625 8.625 C0.27359375 9.10066406 -0.5153125 9.57632812 -1.328125 10.06640625 C-3.99594625 11.19272151 -5.03251768 11.0794313 -7.6875 10.0625 C-8.0175 8.0825 -8.3475 6.1025 -8.6875 4.0625 C-3.5 0.08139535 -3.5 0.08139535 0 0 Z " fill="#1ED2FD" transform="translate(108.6875,321.9375)"/>
<path d="M0 0 C0.33 0 0.66 0 1 0 C1.02690104 2.79173055 1.04679053 5.58320348 1.0625 8.375 C1.07087891 9.1690625 1.07925781 9.963125 1.08789062 10.78125 C1.11328125 16.7734375 1.11328125 16.7734375 0 19 C-0.58357762 27.9596328 0.37181981 37.05964977 1 46 C0.01 46.495 0.01 46.495 -1 47 C-2.04121815 39.52711763 -2.18612692 32.16334933 -2.18530273 24.62695312 C-2.18750145 22.3735091 -2.20574154 20.12054607 -2.22460938 17.8671875 C-2.227542 16.41927249 -2.22952767 14.97135518 -2.23046875 13.5234375 C-2.23457764 12.22325684 -2.23868652 10.92307617 -2.24291992 9.58349609 C-2.00324144 6.04781691 -1.28115497 3.28841411 0 0 Z " fill="#6224E4" transform="translate(38,179)"/>
<path d="M0 0 C-0.99 0.495 -0.99 0.495 -2 1 C-2 1.99 -2 2.98 -2 4 C-3.45019531 4.56267578 -3.45019531 4.56267578 -4.9296875 5.13671875 C-11.86220335 7.85425069 -18.60020322 10.63026206 -25.14453125 14.21484375 C-26.06298828 14.60349609 -26.06298828 14.60349609 -27 15 C-27.66 14.67 -28.32 14.34 -29 14 C-27.865625 13.33613281 -26.73125 12.67226563 -25.5625 11.98828125 C-24.04163159 11.09641397 -22.52080024 10.2044835 -21 9.3125 C-20.25621094 8.87744141 -19.51242188 8.44238281 -18.74609375 7.99414062 C-18.00488281 7.55908203 -17.26367188 7.12402344 -16.5 6.67578125 C-15.75363281 6.23959473 -15.00726563 5.8034082 -14.23828125 5.35400391 C-12.73425771 4.44417466 -11.25201485 3.49742679 -9.79296875 2.51708984 C-9.09816406 2.05125488 -8.40335938 1.58541992 -7.6875 1.10546875 C-7.07261719 0.6777417 -6.45773438 0.25001465 -5.82421875 -0.19067383 C-3.5020495 -1.22091888 -2.34532122 -0.83710623 0 0 Z " fill="#2B313B" transform="translate(132,279)"/>
<path d="M0 0 C0 1.32 0 2.64 0 4 C-5 8 -5 8 -9 8 C-9.33 5.36 -9.66 2.72 -10 0 C-6.30458414 -0.95024979 -3.69541586 -0.95024979 0 0 Z " fill="#8C9CFD" transform="translate(142,252)"/>
<path d="M0 0 C0 1.65 0 3.3 0 5 C-1.45537568 5.83848804 -2.91440373 6.67063934 -4.375 7.5 C-5.59316406 8.19609375 -5.59316406 8.19609375 -6.8359375 8.90625 C-9 10 -9 10 -11 10 C-11.33 8.02 -11.66 6.04 -12 4 C-4.34782609 0 -4.34782609 0 0 0 Z " fill="#5A9DFB" transform="translate(203,217)"/>
<path d="M0 0 C2.76276177 0.52268466 5.3260876 1.10869587 8 2 C8.33 2.99 8.66 3.98 9 5 C12.3 5.33 15.6 5.66 19 6 C19 6.33 19 6.66 19 7 C12.73 7 6.46 7 0 7 C0 4.69 0 2.38 0 0 Z " fill="#A4D0FB" transform="translate(150,349)"/>
<path d="M0 0 C-1.36396587 4.09189762 -3.34848983 4.61547327 -7.0625 6.6875 C-8.16722656 7.31011719 -9.27195312 7.93273437 -10.41015625 8.57421875 C-11.26480469 9.04472656 -12.11945313 9.51523437 -13 10 C-13.99 9.01 -14.98 8.02 -16 7 C-14.55692446 4.11384891 -12.59460743 3.69186191 -9.6875 2.375 C-8.72199219 1.92898438 -7.75648437 1.48296875 -6.76171875 1.0234375 C-4 0 -4 0 0 0 Z " fill="#95CDFC" transform="translate(119,268)"/>
<path d="M0 0 C0.33 0 0.66 0 1 0 C1.19668013 5.82828789 0.60402874 10.80984807 -0.875 16.4375 C-1.04902344 17.15615234 -1.22304688 17.87480469 -1.40234375 18.61523438 C-1.86489345 20.42945708 -2.42496581 22.21823348 -3 24 C-3.66 24.33 -4.32 24.66 -5 25 C-4.505 20.545 -4.505 20.545 -4 16 C-4.66 16.33 -5.32 16.66 -6 17 C-5.57074219 15.95779297 -5.57074219 15.95779297 -5.1328125 14.89453125 C-3.94269408 11.8535735 -2.89736547 8.78867525 -1.875 5.6875 C-1.52179688 4.61886719 -1.16859375 3.55023438 -0.8046875 2.44921875 C-0.53914063 1.64097656 -0.27359375 0.83273438 0 0 Z " fill="#5F88EA" transform="translate(426,239)"/>
<path d="M0 0 C0.99 0.33 1.98 0.66 3 1 C3 1.66 3 2.32 3 3 C2.40832031 3.32613281 1.81664063 3.65226562 1.20703125 3.98828125 C-2.21135864 5.8787122 -5.61244117 7.76086796 -8.9375 9.8125 C-11 11 -11 11 -13 11 C-13.66 9.68 -14.32 8.36 -15 7 C-14.16855469 6.82984375 -13.33710937 6.6596875 -12.48046875 6.484375 C-10.85044922 6.12085938 -10.85044922 6.12085938 -9.1875 5.75 C-8.10855469 5.51796875 -7.02960938 5.2859375 -5.91796875 5.046875 C-2.6940042 3.89021838 -1.70970478 2.90349865 0 0 Z " fill="#80E2FA" transform="translate(126,316)"/>
<path d="M0 0 C0.66 0 1.32 0 2 0 C2.66 2.97 3.32 5.94 4 9 C5.32 8.67 6.64 8.34 8 8 C10.33300933 7.96111651 12.66709801 7.9551365 15 8 C12.27835324 10.72164676 9.70485455 11.10572476 6 12 C4.68 12 3.36 12 2 12 C0.86235649 7.73383684 0 4.43513689 0 0 Z " fill="#17A8E5" transform="translate(164,222)"/>
<path d="M0 0 C4.17950077 3.45889719 5.32762134 6.98286401 7 12 C3.62528989 10.55369567 1.21807236 8.95742982 -1 6 C-0.75 2.75 -0.75 2.75 0 0 Z " fill="#D2D9FB" transform="translate(363,215)"/>
<path d="M0 0 C0 0.66 0 1.32 0 2 C-11.52164009 8.51936219 -11.52164009 8.51936219 -17 10 C-13.59987423 6.29986313 -10.56013557 4.08180102 -6 2 C-3 0 -3 0 0 0 Z " fill="#3198FB" transform="translate(130,319)"/>
<path d="M0 0 C2 3 2 3 2 7 C1.01 7.33 0.02 7.66 -1 8 C-1.33 7.34 -1.66 6.68 -2 6 C-4.31 6.33 -6.62 6.66 -9 7 C-9 6.34 -9 5.68 -9 5 C-3.375 2 -3.375 2 0 2 C0 1.34 0 0.68 0 0 Z " fill="#1697ED" transform="translate(150,233)"/>
<path d="M0 0 C0.66 1.32 1.32 2.64 2 4 C2.99 4.33 3.98 4.66 5 5 C3.68 9.29 2.36 13.58 1 18 C0.67 18 0.34 18 0 18 C0 12.06 0 6.12 0 0 Z " fill="#6F1CED" transform="translate(311,77)"/>
<path d="M0 0 C0.55171875 0.23589844 1.1034375 0.47179687 1.671875 0.71484375 C1.671875 1.37484375 1.671875 2.03484375 1.671875 2.71484375 C-0.09317935 3.58088909 -1.86540574 4.43233017 -3.640625 5.27734375 C-5.11982422 5.99083984 -5.11982422 5.99083984 -6.62890625 6.71875 C-9.328125 7.71484375 -9.328125 7.71484375 -12.328125 6.71484375 C-10.75638425 5.51204214 -9.17024942 4.328031 -7.578125 3.15234375 C-6.69640625 2.49105469 -5.8146875 1.82976562 -4.90625 1.1484375 C-2.328125 -0.28515625 -2.328125 -0.28515625 0 0 Z " fill="#29303B" transform="translate(201.328125,204.28515625)"/>
<path d="M0 0 C0.33 0.66 0.66 1.32 1 2 C-0.89515353 5.74623373 -3.37268608 8.72081913 -6.1875 11.8125 C-6.90292969 12.60269531 -7.61835938 13.39289063 -8.35546875 14.20703125 C-8.89816406 14.79871094 -9.44085938 15.39039063 -10 16 C-10.66 15.67 -11.32 15.34 -12 15 C-11.30132812 14.16855469 -10.60265625 13.33710938 -9.8828125 12.48046875 C-8.96346318 11.38287824 -8.04419668 10.28521835 -7.125 9.1875 C-6.66480469 8.64029297 -6.20460938 8.09308594 -5.73046875 7.52929688 C-3.68242038 5.08054339 -1.77281117 2.65921675 0 0 Z " fill="#3D71C6" transform="translate(339,302)"/>
<path d="M0 0 C0 0.66 0 1.32 0 2 C-0.51949219 2.25394531 -1.03898437 2.50789063 -1.57421875 2.76953125 C-4.76915689 4.34633066 -7.8573226 5.91005121 -10.875 7.8125 C-11.57625 8.204375 -12.2775 8.59625 -13 9 C-13.66 8.67 -14.32 8.34 -15 8 C-5.91891892 0 -5.91891892 0 0 0 Z " fill="#C0F0FD" transform="translate(126,313)"/>
<path d="M0 0 C4.67248931 2.82522609 7.65996398 5.67760044 11 10 C6.69235185 8.43358249 2.93828536 6.31663844 -1 4 C-0.67 2.68 -0.34 1.36 0 0 Z " fill="#27CEFA" transform="translate(337,40)"/>
<path d="M0 0 C2.36999731 3.55499597 2.69444358 6.37297177 3.33984375 10.52734375 C4.071062 13.26616714 5.17594244 14.85785065 7 17 C6.01 17.33 5.02 17.66 4 18 C0.4317767 12.64766505 -0.32665309 6.36973531 0 0 Z " fill="#5E1EE2" transform="translate(39,233)"/>
<path d="M0 0 C0.66 0 1.32 0 2 0 C1.48517081 5.852795 0.54642808 11.3297637 -1 17 C-1.33 17 -1.66 17 -2 17 C-2.25287193 10.93107371 -1.69832609 5.83799592 0 0 Z " fill="#6832EF" transform="translate(42,154)"/>
<path d="M0 0 C5.875 3.625 5.875 3.625 7 7 C5.02 7 3.04 7 1 7 C0.67 4.69 0.34 2.38 0 0 Z " fill="#5DD6FC" transform="translate(319,103)"/>
<path d="M0 0 C0 0.99 0 1.98 0 3 C-1.8984375 4.60546875 -1.8984375 4.60546875 -4.375 6.1875 C-5.18710938 6.71730469 -5.99921875 7.24710937 -6.8359375 7.79296875 C-9 9 -9 9 -11 9 C-11 8.01 -11 7.02 -11 6 C-7.37 4.02 -3.74 2.04 0 0 Z " fill="#305AEF" transform="translate(162,300)"/>
<path d="M0 0 C3.24788441 1.29915377 3.99860774 2.91819483 5.5 6 C4.51 6.495 4.51 6.495 3.5 7 C3.17 6.01 2.84 5.02 2.5 4 C-0.14 3.67 -2.78 3.34 -5.5 3 C-3.70221085 0.63448796 -3.0407189 0 0 0 Z " fill="#3CD8FD" transform="translate(108.5,322)"/>
<path d="M0 0 C0.66 0 1.32 0 2 0 C2 1.32 2 2.64 2 4 C1.195625 4.268125 0.39125 4.53625 -0.4375 4.8125 C-1.283125 5.204375 -2.12875 5.59625 -3 6 C-3.33 6.99 -3.66 7.98 -4 9 C-4.66 9 -5.32 9 -6 9 C-4.4722133 5.56247993 -2.49818944 2.81046312 0 0 Z " fill="#4479DC" transform="translate(360,198)"/>
<path d="M0 0 C0.66 0.33 1.32 0.66 2 1 C1.67 3.97 1.34 6.94 1 10 C0.34 10 -0.32 10 -1 10 C-1.33 7.03 -1.66 4.06 -2 1 C-1.34 0.67 -0.68 0.34 0 0 Z " fill="#5280F6" transform="translate(213,262)"/>
<path d="M0 0 C1.27310312 0.93441535 2.543388 1.87267111 3.8125 2.8125 C4.52019531 3.33457031 5.22789062 3.85664063 5.95703125 4.39453125 C7.78531393 5.83128877 9.39896688 7.31815763 11 9 C5.64847115 8.67566492 2.71719957 5.50295176 -1 2 C-0.67 1.34 -0.34 0.68 0 0 Z " fill="#6A1CEC" transform="translate(362,221)"/>
<path d="M0 0 C0.66 1.32 1.32 2.64 2 4 C0.71349294 4.69710731 -0.57940665 5.38242876 -1.875 6.0625 C-2.95394531 6.63677734 -2.95394531 6.63677734 -4.0546875 7.22265625 C-4.69664063 7.47917969 -5.33859375 7.73570312 -6 8 C-6.66 7.67 -7.32 7.34 -8 7 C-4.25 4 -4.25 4 -2 4 C-2 3.34 -2 2.68 -2 2 C-1.34 2 -0.68 2 0 2 C0 1.34 0 0.68 0 0 Z " fill="#6AD2F9" transform="translate(120,256)"/>
<path d="M0 0 C0 1.65 0 3.3 0 5 C-2.64 4.67 -5.28 4.34 -8 4 C-5.87162321 1.87162321 -3.16570896 0 0 0 Z " fill="#66D3FC" transform="translate(271,57)"/>
<path d="M0 0 C0 1.65 0 3.3 0 5 C-0.8353125 4.505 -0.8353125 4.505 -1.6875 4 C-4.30284522 2.8690399 -6.1806646 2.84337026 -9 3 C-5.87496336 0.91664224 -3.72863529 0 0 0 Z " fill="#79BCFD" transform="translate(203,217)"/>
<path d="M0 0 C-3.63 1.98 -7.26 3.96 -11 6 C-10 2 -10 2 -8.22265625 0.91796875 C-7.15337891 0.55638672 -7.15337891 0.55638672 -6.0625 0.1875 C-5.35222656 -0.06644531 -4.64195312 -0.32039062 -3.91015625 -0.58203125 C-2 -1 -2 -1 0 0 Z " fill="#D5D8DC" transform="translate(357,148)"/>
<path d="M0 0 C2.97 0 5.94 0 9 0 C7.3125 1.5625 7.3125 1.5625 5 3 C2.25 2.6875 2.25 2.6875 0 2 C0 1.34 0 0.68 0 0 Z " fill="#206FD1" transform="translate(135,242)"/>
<path d="M0 0 C3.37462715 0.54723683 5.08235 1.0549 8 3 C7.01 3 6.02 3 5 3 C5 3.66 5 4.32 5 5 C4.34 5 3.68 5 3 5 C3 4.34 3 3.68 3 3 C2.01 2.67 1.02 2.34 0 2 C0 1.34 0 0.68 0 0 Z " fill="#B9DEFE" transform="translate(150,349)"/>
<path d="M0 0 C-0.33 0.99 -0.66 1.98 -1 3 C-5.455 3.495 -5.455 3.495 -10 4 C-4.7826087 0 -4.7826087 0 0 0 Z " fill="#ABE0FD" transform="translate(119,268)"/>
<path d="M0 0 C2.64 0 5.28 0 8 0 C7.01 0.33 6.02 0.66 5 1 C5.33 2.32 5.66 3.64 6 5 C1.125 2.25 1.125 2.25 0 0 Z " fill="#171D27" transform="translate(223,117)"/>
<path d="M0 0 C0.99 0.33 1.98 0.66 3 1 C3 1.66 3 2.32 3 3 C1.03852126 4.38938077 -0.96166576 5.7260411 -3 7 C-3.66 6.67 -4.32 6.34 -5 6 C-3.35 4.02 -1.7 2.04 0 0 Z " fill="#5CD5FD" transform="translate(126,316)"/>
</svg>
